<?xml version="1.0" encoding="UTF-8" standalone="no"?>

<svg
   width="211.66667mm"
   height="211.66667mm"
   viewBox="0 0 211.66667 211.66667"
   version="1.1"
   xmlSpace="preserve"
   xmlns="http://www.w3.org/2000/svg"><defs/><g
     transform="translate(0.51178433,-31.999047)"><ellipse
       style="stroke-width:0.269201"
       className="plus-back"
       cx="105.32154"
       cy="137.83238"
       rx="99.564423"
       ry="98.887115" /><path
       d="m 105.32155,230.43655 c -51.143959,0 -92.604167,-41.47344 -92.604167,-92.60417 0,-51.13073 41.460208,-92.60416 92.604167,-92.60416 51.14395,0 92.60416,41.47343 92.60416,92.60416 0,51.13073 -41.46021,92.60417 -92.60416,92.60417 z m 0,-198.437502 c -58.453074,0 -105.83333434,47.360422 -105.83333434,105.833332 0,58.47292 47.38026034,105.83334 105.83333434,105.83334 58.45307,0 105.83333,-47.36042 105.83333,-105.83334 0,-58.47291 -47.38026,-105.833332 -105.83333,-105.833332 z m 39.68749,99.218752 h -33.0729 V 98.14488 c 0,-3.63802 -2.95672,-6.61458 -6.61459,-6.61458 -3.65786,0 -6.614584,2.97656 -6.614584,6.61458 V 131.2178 H 65.634049 c -3.657864,0 -6.614583,2.97656 -6.614583,6.61458 0,3.63802 2.956719,6.61459 6.614583,6.61459 h 33.072917 v 33.07291 c 0,3.63802 2.956724,6.61459 6.614584,6.61459 3.65787,0 6.61459,-2.97657 6.61459,-6.61459 v -33.07291 h 33.0729 c 3.65787,0 6.61459,-2.97657 6.61459,-6.61459 0,-3.63802 -2.95672,-6.61458 -6.61459,-6.61458 z"
       className="plus-circle"
       style="fill-rule:evenodd;stroke:none;stroke-width:6.61458" /></g>
</svg>
